# xmcd
#
# Track frame offsets: 
#        150
#        32778
#        53452
#        75597
#        91528
#        110401
#        139782
#        160747
#        180226
#        206036
#        227169
#        248091
#        269405
#        289913
#        316786
#
# Disc length: 4721 seconds
#
# Revision: 0
# Processed by: cddbd v1.5.2PL0 Copyright (c) Steve Scherf et al.
# Submitted via: ExactAudioCopy v0.99pb4
#
DISCID=bc126f0f
DTITLE=Mac Arnold and Plate Full O' Blues - Backbone and Gristle
DYEAR=2008
DGENRE=Blues
TTITLE0=Love And Relations
TTITLE1=U Dawg Gone Right
TTITLE2=Backbone and Gristle
TTITLE3=Blow Till You Blow
TTITLE4=I Refuse
TTITLE5=Gas Can Story
TTITLE6=Gitty Up
TTITLE7=Things I Don't Need
TTITLE8=Buster
TTITLE9=I Can Do Anything - Studio
TTITLE10=The Garden Song
TTITLE11=Wrong
TTITLE12=Where I've Been
TTITLE13=Mean To Me - Live
TTITLE14=I Can Do Anything - Live
EXTD=
EXTT0=
EXTT1=
EXTT2=
EXTT3=
EXTT4=
EXTT5=
EXTT6=
EXTT7=
EXTT8=
EXTT9=
EXTT10=
EXTT11=
EXTT12=
EXTT13=
EXTT14=
PLAYORDER=
